<mxfile host="app.diagrams.net" modified="2022-10-20T02:59:46.665Z" agent="5.0 (Windows NT 10.0; Win64; x64) AppleWebKit/537.36 (KHTML, like Gecko) Chrome/106.0.0.0 Safari/537.36" etag="SPyFGY5pyPO7b5ViLk5n" version="20.4.1" type="github">
  <diagram id="C5RBs43oDa-KdzZeNtuy" name="Page-1">
    <mxGraphModel dx="1422" dy="1963" grid="1" gridSize="10" guides="1" tooltips="1" connect="1" arrows="1" fold="1" page="1" pageScale="1" pageWidth="827" pageHeight="1169" math="0" shadow="0">
      <root>
        <mxCell id="WIyWlLk6GJQsqaUBKTNV-0" />
        <mxCell id="WIyWlLk6GJQsqaUBKTNV-1" parent="WIyWlLk6GJQsqaUBKTNV-0" />
        <mxCell id="0ZEWk656FcYH8bcqwM41-0" value="" style="edgeStyle=orthogonalEdgeStyle;rounded=0;orthogonalLoop=1;jettySize=auto;html=1;entryX=0;entryY=0.5;entryDx=0;entryDy=0;" edge="1" parent="WIyWlLk6GJQsqaUBKTNV-1" source="0ZEWk656FcYH8bcqwM41-1" target="0ZEWk656FcYH8bcqwM41-11">
          <mxGeometry relative="1" as="geometry">
            <mxPoint x="210" y="201.25" as="targetPoint" />
          </mxGeometry>
        </mxCell>
        <mxCell id="0ZEWk656FcYH8bcqwM41-1" value="" style="html=1;verticalLabelPosition=bottom;align=center;labelBackgroundColor=#ffffff;verticalAlign=top;strokeWidth=2;strokeColor=#0080F0;shadow=0;dashed=0;shape=mxgraph.ios7.icons.video_conversation;" vertex="1" parent="WIyWlLk6GJQsqaUBKTNV-1">
          <mxGeometry x="120" y="193.75" width="30" height="15" as="geometry" />
        </mxCell>
        <mxCell id="0ZEWk656FcYH8bcqwM41-2" value="" style="edgeStyle=orthogonalEdgeStyle;rounded=0;orthogonalLoop=1;jettySize=auto;html=1;" edge="1" parent="WIyWlLk6GJQsqaUBKTNV-1" source="0ZEWk656FcYH8bcqwM41-4" target="0ZEWk656FcYH8bcqwM41-12">
          <mxGeometry relative="1" as="geometry" />
        </mxCell>
        <mxCell id="0ZEWk656FcYH8bcqwM41-4" value="Server" style="rounded=1;whiteSpace=wrap;html=1;" vertex="1" parent="WIyWlLk6GJQsqaUBKTNV-1">
          <mxGeometry x="230" y="-30" width="120" height="60" as="geometry" />
        </mxCell>
        <mxCell id="0ZEWk656FcYH8bcqwM41-10" style="edgeStyle=orthogonalEdgeStyle;rounded=0;orthogonalLoop=1;jettySize=auto;html=1;exitX=0.5;exitY=1;exitDx=0;exitDy=0;entryX=0.425;entryY=0.067;entryDx=0;entryDy=0;entryPerimeter=0;startArrow=none;startFill=0;fillColor=#d5e8d4;strokeColor=#33001A;" edge="1" parent="WIyWlLk6GJQsqaUBKTNV-1" source="0ZEWk656FcYH8bcqwM41-11" target="0ZEWk656FcYH8bcqwM41-13">
          <mxGeometry relative="1" as="geometry" />
        </mxCell>
        <mxCell id="0ZEWk656FcYH8bcqwM41-25" style="edgeStyle=orthogonalEdgeStyle;rounded=0;orthogonalLoop=1;jettySize=auto;html=1;exitX=0.5;exitY=0;exitDx=0;exitDy=0;entryX=0.5;entryY=1;entryDx=0;entryDy=0;" edge="1" parent="WIyWlLk6GJQsqaUBKTNV-1" source="0ZEWk656FcYH8bcqwM41-11" target="0ZEWk656FcYH8bcqwM41-23">
          <mxGeometry relative="1" as="geometry" />
        </mxCell>
        <mxCell id="0ZEWk656FcYH8bcqwM41-11" value="AI" style="rounded=0;whiteSpace=wrap;html=1;" vertex="1" parent="WIyWlLk6GJQsqaUBKTNV-1">
          <mxGeometry x="230" y="170" width="120" height="62.5" as="geometry" />
        </mxCell>
        <mxCell id="0ZEWk656FcYH8bcqwM41-12" value="UI" style="rounded=0;whiteSpace=wrap;html=1;" vertex="1" parent="WIyWlLk6GJQsqaUBKTNV-1">
          <mxGeometry x="180" y="-110" width="220" height="30" as="geometry" />
        </mxCell>
        <mxCell id="0ZEWk656FcYH8bcqwM41-13" value="FS" style="rounded=0;whiteSpace=wrap;html=1;" vertex="1" parent="WIyWlLk6GJQsqaUBKTNV-1">
          <mxGeometry x="120" y="310" width="400" height="30" as="geometry" />
        </mxCell>
        <mxCell id="0ZEWk656FcYH8bcqwM41-17" style="edgeStyle=orthogonalEdgeStyle;rounded=0;orthogonalLoop=1;jettySize=auto;html=1;exitX=0;exitY=0.5;exitDx=0;exitDy=0;entryX=1;entryY=0.5;entryDx=0;entryDy=0;startArrow=none;startFill=0;elbow=vertical;" edge="1" parent="WIyWlLk6GJQsqaUBKTNV-1" source="0ZEWk656FcYH8bcqwM41-18" target="0ZEWk656FcYH8bcqwM41-11">
          <mxGeometry relative="1" as="geometry">
            <mxPoint x="210" y="336.25" as="targetPoint" />
          </mxGeometry>
        </mxCell>
        <mxCell id="0ZEWk656FcYH8bcqwM41-18" value="" style="aspect=fixed;perimeter=ellipsePerimeter;html=1;align=center;shadow=0;dashed=0;spacingTop=3;image;image=img/lib/active_directory/cd_dvd.svg;" vertex="1" parent="WIyWlLk6GJQsqaUBKTNV-1">
          <mxGeometry x="440" y="179.38" width="43.75" height="43.75" as="geometry" />
        </mxCell>
        <mxCell id="0ZEWk656FcYH8bcqwM41-24" style="edgeStyle=orthogonalEdgeStyle;rounded=0;orthogonalLoop=1;jettySize=auto;html=1;exitX=0.5;exitY=0;exitDx=0;exitDy=0;entryX=0.5;entryY=1;entryDx=0;entryDy=0;" edge="1" parent="WIyWlLk6GJQsqaUBKTNV-1" source="0ZEWk656FcYH8bcqwM41-23" target="0ZEWk656FcYH8bcqwM41-4">
          <mxGeometry relative="1" as="geometry" />
        </mxCell>
        <mxCell id="0ZEWk656FcYH8bcqwM41-23" value="FFMpeg" style="rounded=0;whiteSpace=wrap;html=1;" vertex="1" parent="WIyWlLk6GJQsqaUBKTNV-1">
          <mxGeometry x="230" y="70" width="120" height="62.5" as="geometry" />
        </mxCell>
      </root>
    </mxGraphModel>
  </diagram>
</mxfile>
